<?xml version="1.0" standalone="no"?>
<!DOCTYPE svg PUBLIC "-//W3C//DTD SVG 20010904//EN"
 "http://www.w3.org/TR/2001/REC-SVG-20010904/DTD/svg10.dtd">
<svg version="1.0" xmlns="http://www.w3.org/2000/svg"
 width="200.000000pt" height="200.000000pt" viewBox="0 0 200.000000 200.000000"
 preserveAspectRatio="xMidYMid meet">
<metadata>
Created by potrace 1.11, written by Peter Selinger 2001-2013
</metadata>
<g transform="translate(0.000000,200.000000) scale(0.100000,-0.100000)"
fill="#000000" stroke="none">
<path d="M0 1000 l0 -1000 1000 0 1000 0 0 1000 0 1000 -1000 0 -1000 0 0
-1000z m773 760 c18 -1 62 -1 99 0 37 1 72 -1 78 -5 5 -3 10 -1 10 5 0 6 4 9
8 6 5 -3 44 -5 88 -6 105 -1 325 -2 344 -1 36 2 295 -1 297 -3 2 -2 -45 -70
-87 -126 -10 -14 -38 -53 -62 -87 -24 -34 -62 -90 -86 -123 l-42 -61 61 -85
61 -85 42 58 c23 32 87 121 141 198 54 77 99 142 101 144 2 2 4 -300 4 -672
l0 -677 -87 0 c-248 -1 -305 0 -314 6 -5 3 -9 2 -9 -3 0 -8 -270 -7 -302 1
-10 2 -18 0 -18 -6 0 -5 -4 -7 -9 -4 -5 3 -58 6 -117 6 -93 0 -277 1 -309 2
-5 0 -21 -1 -35 -2 -14 -1 -74 -1 -135 -1 -60 1 -137 1 -170 0 -33 0 -81 0
-107 0 l-48 1 0 677 0 676 130 -184 c71 -101 136 -192 144 -202 13 -17 19 -12
75 67 l62 86 -97 137 c-54 76 -114 161 -134 188 -59 81 -61 76 24 74 42 -1 78
0 80 2 4 3 200 2 319 -1z"/>
<path d="M760 1421 c-135 -73 -168 -327 -67 -526 14 -28 33 -65 43 -84 37 -71
257 -266 274 -243 3 4 18 16 33 25 75 48 186 159 226 228 68 114 100 226 96
339 -6 200 -108 308 -254 269 -18 -5 -61 -46 -90 -88 l-24 -33 -15 28 c-13 27
-36 52 -74 82 -29 23 -109 24 -148 3z"/>
</g>
</svg>
